<svg width="224" height="78" viewBox="0 0 224 78" fill="none" xmlns="http://www.w3.org/2000/svg">
<path d="M11.5754 43.3465L37.1763 71.9604C40.8025 76.0132 47.1976 76.0132 50.8238 71.9604L76.4247 43.3465C84.0457 34.8283 88.0049 24.116 82.279 13.9009C75.6635 2.09862 63.5411 -0.313604 53.0068 7.61213C49.3847 10.3371 46.4117 13.4489 44.9599 15.0634C44.4556 15.6244 43.5445 15.6244 43.0402 15.0634C41.5883 13.4489 38.6154 10.3371 34.9932 7.61213C24.4591 -0.313604 12.3364 2.09862 5.72093 13.9009C-0.00485867 24.116 3.95424 34.8283 11.5754 43.3465Z" stroke="#008CFF" stroke-width="5" stroke-linejoin="round"/>
<mask id="path-2-outside-1_18_24" maskUnits="userSpaceOnUse" x="94" y="19" width="130" height="40" fill="black">
<rect fill="white" x="94" y="19" width="130" height="40"/>
<path d="M118.754 45.16C118.927 45.1847 119.309 45.234 119.901 45.308C120.518 45.382 120.912 45.493 121.085 45.641C121.258 45.7643 121.344 45.9493 121.344 46.196C121.344 46.418 121.221 46.64 120.974 46.862C120.752 47.0593 120.518 47.1457 120.271 47.121L119.013 46.973C119.112 47.9843 119.309 49.674 119.605 52.042C119.901 54.3853 120.074 55.4953 120.123 55.372C120.098 55.6187 119.987 55.8283 119.79 56.001C119.593 56.1737 119.383 56.26 119.161 56.26C118.717 56.26 118.347 55.631 118.051 54.373C117.903 53.6577 117.743 52.3873 117.57 50.562C117.348 48.416 117.212 47.1457 117.163 46.751C115.14 46.5783 112.55 46.4673 109.393 46.418L107.173 46.381C103.991 51.1663 100.994 54.2127 98.182 55.52C97.2447 55.9887 96.5047 56.223 95.962 56.223C95.3207 56.223 95 55.9147 95 55.298C95 55.002 95.111 54.743 95.333 54.521C95.555 54.2743 95.777 54.151 95.999 54.151C96.221 54.151 96.406 54.2497 96.554 54.447C98.2313 53.781 99.7237 52.819 101.031 51.561C102.338 50.2783 103.781 48.5393 105.36 46.344L103.88 46.27C102.721 46.2207 101.894 46.159 101.401 46.085C100.908 45.9863 100.661 45.7767 100.661 45.456C100.661 45.2093 100.76 44.975 100.957 44.753C101.179 44.531 101.426 44.3953 101.697 44.346C102.314 44.4447 103.917 44.5557 106.507 44.679C108.875 41.127 111.317 36.9213 113.833 32.062C116.349 27.178 117.891 23.4533 118.458 20.888C118.557 20.6413 118.717 20.4317 118.939 20.259C119.161 20.0863 119.371 20 119.568 20C119.741 20 119.901 20.1357 120.049 20.407C120.222 20.6783 120.308 20.9497 120.308 21.221C120.308 21.4677 120.246 21.6527 120.123 21.776C119.728 23.2313 119.321 25.8953 118.902 29.768C118.507 33.6407 118.31 36.391 118.31 38.019C118.31 39.9677 118.458 42.348 118.754 45.16ZM116.682 38.426C116.682 35.6387 116.941 32.284 117.459 28.362C116.127 31.1493 114.585 34.0847 112.834 37.168C111.083 40.2513 109.578 42.7673 108.32 44.716C111.699 44.716 114.585 44.8023 116.978 44.975C116.781 43.273 116.682 41.09 116.682 38.426ZM120.123 55.261V55.372V55.261Z"/>
<path d="M129.97 56.519C128.885 56.519 128.046 56.038 127.454 55.076C126.887 54.114 126.603 52.9177 126.603 51.487C126.603 50.4263 126.665 49.3903 126.788 48.379C126.912 47.343 127.097 46.122 127.343 44.716L127.491 43.754C127.861 41.4353 128.17 39.6347 128.416 38.352C128.466 38.0313 128.515 37.7477 128.564 37.501C128.614 37.2543 128.651 37.0323 128.675 36.835C128.897 35.6757 129.095 34.7383 129.267 34.023C129.391 33.283 129.711 31.6673 130.229 29.176C130.624 27.4247 131.13 24.773 131.746 21.221C131.919 20.8263 132.166 20.629 132.486 20.629C133.128 20.629 133.448 20.9003 133.448 21.443L133.374 21.702C132.782 25.698 132.092 29.472 131.302 33.024C130.414 36.9953 129.761 40.0293 129.341 42.126C130.18 40.6213 130.982 39.4867 131.746 38.722C132.511 37.9327 133.35 37.538 134.262 37.538C135.175 37.538 135.903 37.8957 136.445 38.611C137.013 39.3017 137.296 40.1033 137.296 41.016C137.296 42.9153 137 45.086 136.408 47.528C135.841 49.9453 135.089 51.9187 134.151 53.448C132.918 55.4953 131.524 56.519 129.97 56.519ZM129.97 54.632C130.858 54.632 131.746 53.892 132.634 52.412C133.818 50.5127 134.657 48.0583 135.15 45.049C135.274 44.1117 135.335 43.2237 135.335 42.385C135.335 41.3737 135.237 40.6213 135.039 40.128C134.867 39.61 134.534 39.351 134.04 39.351C133.522 39.351 132.856 39.795 132.042 40.683C131.253 41.5463 130.538 42.6317 129.896 43.939C129.255 45.2217 128.873 46.4303 128.749 47.565C128.577 49.2177 128.49 50.525 128.49 51.487C128.49 53.5837 128.984 54.632 129.97 54.632Z"/>
<path d="M143.312 56.482C142.029 56.482 141.067 55.9763 140.426 54.965C139.809 53.9537 139.501 52.745 139.501 51.339C139.501 49.0943 139.871 46.9237 140.611 44.827C141.376 42.7057 142.412 40.9543 143.719 39.573C144.977 38.167 146.395 37.464 147.974 37.464C150.243 37.464 151.378 39.1907 151.378 42.644C151.378 44.3707 151.094 46.1343 150.527 47.935C149.96 49.7357 149.22 51.339 148.307 52.745C147.419 54.151 146.494 55.1623 145.532 55.779C144.792 56.2477 144.052 56.482 143.312 56.482ZM143.608 54.817C144.373 54.817 145.224 54.151 146.161 52.819C147.123 51.487 147.925 49.8343 148.566 47.861C149.232 45.8877 149.565 44.2103 149.565 42.829C149.565 41.3983 149.479 40.5103 149.306 40.165C149.158 39.795 148.973 39.536 148.751 39.388C148.529 39.24 148.184 39.166 147.715 39.166C147.197 39.166 146.654 39.3633 146.087 39.758C144.952 40.4733 143.966 41.7067 143.127 43.458C141.82 46.0727 141.166 48.6133 141.166 51.08C141.166 52.7573 141.647 53.9167 142.609 54.558C142.954 54.7307 143.287 54.817 143.608 54.817Z"/>
<path d="M163.287 57.037C162.547 57.037 162.177 56.0503 162.177 54.077C162.177 53.041 162.263 52.005 162.436 50.969C162.608 49.933 162.88 48.5887 163.25 46.936L163.546 45.567C163.126 46.381 162.633 47.417 162.066 48.675C161.054 50.747 160.031 52.56 158.995 54.114C157.983 55.668 156.972 56.445 155.961 56.445C154.629 56.445 153.963 55.1253 153.963 52.486C153.963 49.2053 154.493 45.3697 155.554 40.979L156.146 38.722C156.368 37.908 156.75 37.501 157.293 37.501C157.589 37.501 157.798 37.7107 157.922 38.13C157.872 38.574 157.774 39.1043 157.626 39.721C157.478 40.3377 157.379 40.7817 157.33 41.053C156.861 42.8537 156.479 44.6543 156.183 46.455C155.887 48.231 155.714 50.4017 155.665 52.967C155.665 53.9537 155.825 54.447 156.146 54.447C156.614 54.447 157.243 53.9043 158.033 52.819C158.822 51.709 159.796 50.0317 160.956 47.787C162.09 45.345 163.176 43.1497 164.212 41.201C165.248 39.2277 166.062 38.241 166.654 38.241C167.073 38.241 167.283 38.4753 167.283 38.944C167.283 39.2893 166.974 40.2637 166.358 41.867C165.889 43.0757 165.581 43.9513 165.433 44.494C164.569 47.454 164.027 50.6853 163.805 54.188C163.805 54.5087 163.829 54.7553 163.879 54.928C163.953 55.076 164.064 55.2363 164.212 55.409C164.384 55.5817 164.471 55.7913 164.471 56.038C164.471 56.2847 164.335 56.5067 164.064 56.704C163.792 56.926 163.533 57.037 163.287 57.037Z"/>
<path d="M172.973 56.297C172.11 56.297 171.456 56.075 171.012 55.631C170.593 55.187 170.383 54.3853 170.383 53.226C170.383 52.5847 170.457 51.8447 170.605 51.006L170.938 48.897L171.345 47.158L171.567 46.159L172.048 44.124C172.098 43.8033 172.209 43.2853 172.381 42.57L172.566 41.83L172.899 40.239L173.121 39.129C172.159 39.129 171.271 39.1907 170.457 39.314C169.964 39.24 169.717 39.0303 169.717 38.685C169.717 38.4383 169.816 38.204 170.013 37.982C170.211 37.76 170.445 37.6367 170.716 37.612L173.38 37.686C173.38 37.686 173.442 37.3777 173.565 36.761C173.615 36.2677 173.713 35.7003 173.861 35.059C174.009 34.4177 174.194 33.8503 174.416 33.357C174.638 32.8143 174.959 32.543 175.378 32.543C175.773 32.543 175.97 32.765 175.97 33.209V33.431C175.872 33.9243 175.785 34.282 175.711 34.504L175.082 37.649H177.746C178.684 37.649 179.263 37.723 179.485 37.871C179.683 38.019 179.781 38.204 179.781 38.426C179.781 38.8207 179.596 39.0797 179.226 39.203C178.881 39.3017 178.277 39.351 177.413 39.351C176.624 39.351 175.748 39.314 174.786 39.24C174.638 40.054 174.133 42.311 173.269 46.011C172.48 49.3657 172.085 51.487 172.085 52.375C172.085 53.337 172.196 53.966 172.418 54.262C172.542 54.4593 172.801 54.558 173.195 54.558C173.541 54.558 173.837 54.4717 174.083 54.299C174.355 54.1017 174.626 53.8427 174.897 53.522C175.169 53.1767 175.403 52.9177 175.6 52.745C175.798 52.5723 176.007 52.486 176.229 52.486C176.723 52.486 176.969 52.7327 176.969 53.226C176.969 53.4727 176.723 53.8797 176.229 54.447C175.736 55.0143 175.267 55.4707 174.823 55.816C174.429 56.1367 173.812 56.297 172.973 56.297Z"/>
<path d="M198.103 56.519C196.795 56.519 195.624 56.1983 194.588 55.557C193.552 54.9157 192.75 54.0523 192.183 52.967C191.615 51.8817 191.332 50.6977 191.332 49.415C191.332 48.9217 191.652 46.8127 192.294 43.088C192.935 39.3633 193.675 35.4043 194.514 31.211C195.377 26.993 196.154 23.6383 196.845 21.147C196.894 20.9743 196.993 20.8387 197.141 20.74C197.313 20.6413 197.486 20.592 197.659 20.592C198.177 20.592 198.436 20.8017 198.436 21.221C197.572 24.551 196.425 29.8297 194.995 37.057C193.589 44.2843 192.886 48.527 192.886 49.785C192.886 51.2403 193.354 52.449 194.292 53.411C195.229 54.3483 196.512 54.817 198.14 54.817C200.138 54.817 201.741 54.3607 202.95 53.448C204.158 52.5107 205.034 51.2527 205.577 49.674C206.465 47.01 207.205 44.4447 207.797 41.978C208.413 39.5113 209.104 36.5143 209.869 32.987C209.967 32.5923 210.276 31.1987 210.794 28.806C211.336 26.3887 211.916 24.1317 212.533 22.035C212.656 21.6157 212.841 21.2703 213.088 20.999C213.359 20.7277 213.606 20.592 213.828 20.592C214.272 20.592 214.494 20.8017 214.494 21.221C214.494 21.2457 214.383 21.6403 214.161 22.405C213.593 24.0577 213.112 25.7103 212.718 27.363C212.471 28.3497 212.027 30.3477 211.386 33.357C210.424 37.8957 209.548 41.6943 208.759 44.753C207.969 47.8117 207.131 50.155 206.243 51.783C204.565 54.9403 201.852 56.519 198.103 56.519Z"/>
<path d="M212.995 53.411C212.995 53.0903 213.081 52.8683 213.254 52.745C213.427 52.6217 213.649 52.5353 213.92 52.486C214.142 52.486 214.315 52.56 214.438 52.708C214.586 52.856 214.759 53.0903 214.956 53.411C215.153 53.7563 215.314 54.003 215.437 54.151C215.585 54.2743 215.832 54.336 216.177 54.336C216.966 54.336 217.608 54.0893 218.101 53.596C218.619 53.1027 218.878 52.523 218.878 51.857C218.878 51.1417 218.73 50.3893 218.434 49.6C218.138 48.8107 217.682 47.824 217.065 46.64C215.832 44.42 215.215 42.6563 215.215 41.349C215.215 40.0417 215.536 38.9933 216.177 38.204C216.843 37.4147 217.743 37.02 218.878 37.02C219.667 37.02 220.42 37.242 221.135 37.686C221.85 38.13 222.208 38.685 222.208 39.351C222.208 40.0663 221.912 40.424 221.32 40.424C221.147 40.424 220.999 40.3747 220.876 40.276C220.777 40.1773 220.679 40.0663 220.58 39.943C220.481 39.795 220.407 39.6963 220.358 39.647C219.914 39.129 219.421 38.87 218.878 38.87C217.669 38.87 217.065 39.573 217.065 40.979C217.065 41.7437 217.213 42.5207 217.509 43.31C217.805 44.0993 218.249 45.0983 218.841 46.307C219.408 47.491 219.84 48.4777 220.136 49.267C220.432 50.0563 220.58 50.8087 220.58 51.524C220.58 52.782 220.198 53.8427 219.433 54.706C218.668 55.5693 217.595 56.0873 216.214 56.26C215.351 56.26 214.598 55.964 213.957 55.372C213.316 54.7553 212.995 54.1017 212.995 53.411Z"/>
</mask>
<path d="M118.754 45.16C118.927 45.1847 119.309 45.234 119.901 45.308C120.518 45.382 120.912 45.493 121.085 45.641C121.258 45.7643 121.344 45.9493 121.344 46.196C121.344 46.418 121.221 46.64 120.974 46.862C120.752 47.0593 120.518 47.1457 120.271 47.121L119.013 46.973C119.112 47.9843 119.309 49.674 119.605 52.042C119.901 54.3853 120.074 55.4953 120.123 55.372C120.098 55.6187 119.987 55.8283 119.79 56.001C119.593 56.1737 119.383 56.26 119.161 56.26C118.717 56.26 118.347 55.631 118.051 54.373C117.903 53.6577 117.743 52.3873 117.57 50.562C117.348 48.416 117.212 47.1457 117.163 46.751C115.14 46.5783 112.55 46.4673 109.393 46.418L107.173 46.381C103.991 51.1663 100.994 54.2127 98.182 55.52C97.2447 55.9887 96.5047 56.223 95.962 56.223C95.3207 56.223 95 55.9147 95 55.298C95 55.002 95.111 54.743 95.333 54.521C95.555 54.2743 95.777 54.151 95.999 54.151C96.221 54.151 96.406 54.2497 96.554 54.447C98.2313 53.781 99.7237 52.819 101.031 51.561C102.338 50.2783 103.781 48.5393 105.36 46.344L103.88 46.27C102.721 46.2207 101.894 46.159 101.401 46.085C100.908 45.9863 100.661 45.7767 100.661 45.456C100.661 45.2093 100.76 44.975 100.957 44.753C101.179 44.531 101.426 44.3953 101.697 44.346C102.314 44.4447 103.917 44.5557 106.507 44.679C108.875 41.127 111.317 36.9213 113.833 32.062C116.349 27.178 117.891 23.4533 118.458 20.888C118.557 20.6413 118.717 20.4317 118.939 20.259C119.161 20.0863 119.371 20 119.568 20C119.741 20 119.901 20.1357 120.049 20.407C120.222 20.6783 120.308 20.9497 120.308 21.221C120.308 21.4677 120.246 21.6527 120.123 21.776C119.728 23.2313 119.321 25.8953 118.902 29.768C118.507 33.6407 118.31 36.391 118.31 38.019C118.31 39.9677 118.458 42.348 118.754 45.16ZM116.682 38.426C116.682 35.6387 116.941 32.284 117.459 28.362C116.127 31.1493 114.585 34.0847 112.834 37.168C111.083 40.2513 109.578 42.7673 108.32 44.716C111.699 44.716 114.585 44.8023 116.978 44.975C116.781 43.273 116.682 41.09 116.682 38.426ZM120.123 55.261V55.372V55.261Z" fill="#008CFF"/>
<path d="M129.97 56.519C128.885 56.519 128.046 56.038 127.454 55.076C126.887 54.114 126.603 52.9177 126.603 51.487C126.603 50.4263 126.665 49.3903 126.788 48.379C126.912 47.343 127.097 46.122 127.343 44.716L127.491 43.754C127.861 41.4353 128.17 39.6347 128.416 38.352C128.466 38.0313 128.515 37.7477 128.564 37.501C128.614 37.2543 128.651 37.0323 128.675 36.835C128.897 35.6757 129.095 34.7383 129.267 34.023C129.391 33.283 129.711 31.6673 130.229 29.176C130.624 27.4247 131.13 24.773 131.746 21.221C131.919 20.8263 132.166 20.629 132.486 20.629C133.128 20.629 133.448 20.9003 133.448 21.443L133.374 21.702C132.782 25.698 132.092 29.472 131.302 33.024C130.414 36.9953 129.761 40.0293 129.341 42.126C130.18 40.6213 130.982 39.4867 131.746 38.722C132.511 37.9327 133.35 37.538 134.262 37.538C135.175 37.538 135.903 37.8957 136.445 38.611C137.013 39.3017 137.296 40.1033 137.296 41.016C137.296 42.9153 137 45.086 136.408 47.528C135.841 49.9453 135.089 51.9187 134.151 53.448C132.918 55.4953 131.524 56.519 129.97 56.519ZM129.97 54.632C130.858 54.632 131.746 53.892 132.634 52.412C133.818 50.5127 134.657 48.0583 135.15 45.049C135.274 44.1117 135.335 43.2237 135.335 42.385C135.335 41.3737 135.237 40.6213 135.039 40.128C134.867 39.61 134.534 39.351 134.04 39.351C133.522 39.351 132.856 39.795 132.042 40.683C131.253 41.5463 130.538 42.6317 129.896 43.939C129.255 45.2217 128.873 46.4303 128.749 47.565C128.577 49.2177 128.49 50.525 128.49 51.487C128.49 53.5837 128.984 54.632 129.97 54.632Z" fill="#008CFF"/>
<path d="M143.312 56.482C142.029 56.482 141.067 55.9763 140.426 54.965C139.809 53.9537 139.501 52.745 139.501 51.339C139.501 49.0943 139.871 46.9237 140.611 44.827C141.376 42.7057 142.412 40.9543 143.719 39.573C144.977 38.167 146.395 37.464 147.974 37.464C150.243 37.464 151.378 39.1907 151.378 42.644C151.378 44.3707 151.094 46.1343 150.527 47.935C149.96 49.7357 149.22 51.339 148.307 52.745C147.419 54.151 146.494 55.1623 145.532 55.779C144.792 56.2477 144.052 56.482 143.312 56.482ZM143.608 54.817C144.373 54.817 145.224 54.151 146.161 52.819C147.123 51.487 147.925 49.8343 148.566 47.861C149.232 45.8877 149.565 44.2103 149.565 42.829C149.565 41.3983 149.479 40.5103 149.306 40.165C149.158 39.795 148.973 39.536 148.751 39.388C148.529 39.24 148.184 39.166 147.715 39.166C147.197 39.166 146.654 39.3633 146.087 39.758C144.952 40.4733 143.966 41.7067 143.127 43.458C141.82 46.0727 141.166 48.6133 141.166 51.08C141.166 52.7573 141.647 53.9167 142.609 54.558C142.954 54.7307 143.287 54.817 143.608 54.817Z" fill="#008CFF"/>
<path d="M163.287 57.037C162.547 57.037 162.177 56.0503 162.177 54.077C162.177 53.041 162.263 52.005 162.436 50.969C162.608 49.933 162.88 48.5887 163.25 46.936L163.546 45.567C163.126 46.381 162.633 47.417 162.066 48.675C161.054 50.747 160.031 52.56 158.995 54.114C157.983 55.668 156.972 56.445 155.961 56.445C154.629 56.445 153.963 55.1253 153.963 52.486C153.963 49.2053 154.493 45.3697 155.554 40.979L156.146 38.722C156.368 37.908 156.75 37.501 157.293 37.501C157.589 37.501 157.798 37.7107 157.922 38.13C157.872 38.574 157.774 39.1043 157.626 39.721C157.478 40.3377 157.379 40.7817 157.33 41.053C156.861 42.8537 156.479 44.6543 156.183 46.455C155.887 48.231 155.714 50.4017 155.665 52.967C155.665 53.9537 155.825 54.447 156.146 54.447C156.614 54.447 157.243 53.9043 158.033 52.819C158.822 51.709 159.796 50.0317 160.956 47.787C162.09 45.345 163.176 43.1497 164.212 41.201C165.248 39.2277 166.062 38.241 166.654 38.241C167.073 38.241 167.283 38.4753 167.283 38.944C167.283 39.2893 166.974 40.2637 166.358 41.867C165.889 43.0757 165.581 43.9513 165.433 44.494C164.569 47.454 164.027 50.6853 163.805 54.188C163.805 54.5087 163.829 54.7553 163.879 54.928C163.953 55.076 164.064 55.2363 164.212 55.409C164.384 55.5817 164.471 55.7913 164.471 56.038C164.471 56.2847 164.335 56.5067 164.064 56.704C163.792 56.926 163.533 57.037 163.287 57.037Z" fill="#008CFF"/>
<path d="M172.973 56.297C172.11 56.297 171.456 56.075 171.012 55.631C170.593 55.187 170.383 54.3853 170.383 53.226C170.383 52.5847 170.457 51.8447 170.605 51.006L170.938 48.897L171.345 47.158L171.567 46.159L172.048 44.124C172.098 43.8033 172.209 43.2853 172.381 42.57L172.566 41.83L172.899 40.239L173.121 39.129C172.159 39.129 171.271 39.1907 170.457 39.314C169.964 39.24 169.717 39.0303 169.717 38.685C169.717 38.4383 169.816 38.204 170.013 37.982C170.211 37.76 170.445 37.6367 170.716 37.612L173.38 37.686C173.38 37.686 173.442 37.3777 173.565 36.761C173.615 36.2677 173.713 35.7003 173.861 35.059C174.009 34.4177 174.194 33.8503 174.416 33.357C174.638 32.8143 174.959 32.543 175.378 32.543C175.773 32.543 175.97 32.765 175.97 33.209V33.431C175.872 33.9243 175.785 34.282 175.711 34.504L175.082 37.649H177.746C178.684 37.649 179.263 37.723 179.485 37.871C179.683 38.019 179.781 38.204 179.781 38.426C179.781 38.8207 179.596 39.0797 179.226 39.203C178.881 39.3017 178.277 39.351 177.413 39.351C176.624 39.351 175.748 39.314 174.786 39.24C174.638 40.054 174.133 42.311 173.269 46.011C172.48 49.3657 172.085 51.487 172.085 52.375C172.085 53.337 172.196 53.966 172.418 54.262C172.542 54.4593 172.801 54.558 173.195 54.558C173.541 54.558 173.837 54.4717 174.083 54.299C174.355 54.1017 174.626 53.8427 174.897 53.522C175.169 53.1767 175.403 52.9177 175.6 52.745C175.798 52.5723 176.007 52.486 176.229 52.486C176.723 52.486 176.969 52.7327 176.969 53.226C176.969 53.4727 176.723 53.8797 176.229 54.447C175.736 55.0143 175.267 55.4707 174.823 55.816C174.429 56.1367 173.812 56.297 172.973 56.297Z" fill="#008CFF"/>
<path d="M198.103 56.519C196.795 56.519 195.624 56.1983 194.588 55.557C193.552 54.9157 192.75 54.0523 192.183 52.967C191.615 51.8817 191.332 50.6977 191.332 49.415C191.332 48.9217 191.652 46.8127 192.294 43.088C192.935 39.3633 193.675 35.4043 194.514 31.211C195.377 26.993 196.154 23.6383 196.845 21.147C196.894 20.9743 196.993 20.8387 197.141 20.74C197.313 20.6413 197.486 20.592 197.659 20.592C198.177 20.592 198.436 20.8017 198.436 21.221C197.572 24.551 196.425 29.8297 194.995 37.057C193.589 44.2843 192.886 48.527 192.886 49.785C192.886 51.2403 193.354 52.449 194.292 53.411C195.229 54.3483 196.512 54.817 198.14 54.817C200.138 54.817 201.741 54.3607 202.95 53.448C204.158 52.5107 205.034 51.2527 205.577 49.674C206.465 47.01 207.205 44.4447 207.797 41.978C208.413 39.5113 209.104 36.5143 209.869 32.987C209.967 32.5923 210.276 31.1987 210.794 28.806C211.336 26.3887 211.916 24.1317 212.533 22.035C212.656 21.6157 212.841 21.2703 213.088 20.999C213.359 20.7277 213.606 20.592 213.828 20.592C214.272 20.592 214.494 20.8017 214.494 21.221C214.494 21.2457 214.383 21.6403 214.161 22.405C213.593 24.0577 213.112 25.7103 212.718 27.363C212.471 28.3497 212.027 30.3477 211.386 33.357C210.424 37.8957 209.548 41.6943 208.759 44.753C207.969 47.8117 207.131 50.155 206.243 51.783C204.565 54.9403 201.852 56.519 198.103 56.519Z" fill="#008CFF"/>
<path d="M212.995 53.411C212.995 53.0903 213.081 52.8683 213.254 52.745C213.427 52.6217 213.649 52.5353 213.92 52.486C214.142 52.486 214.315 52.56 214.438 52.708C214.586 52.856 214.759 53.0903 214.956 53.411C215.153 53.7563 215.314 54.003 215.437 54.151C215.585 54.2743 215.832 54.336 216.177 54.336C216.966 54.336 217.608 54.0893 218.101 53.596C218.619 53.1027 218.878 52.523 218.878 51.857C218.878 51.1417 218.73 50.3893 218.434 49.6C218.138 48.8107 217.682 47.824 217.065 46.64C215.832 44.42 215.215 42.6563 215.215 41.349C215.215 40.0417 215.536 38.9933 216.177 38.204C216.843 37.4147 217.743 37.02 218.878 37.02C219.667 37.02 220.42 37.242 221.135 37.686C221.85 38.13 222.208 38.685 222.208 39.351C222.208 40.0663 221.912 40.424 221.32 40.424C221.147 40.424 220.999 40.3747 220.876 40.276C220.777 40.1773 220.679 40.0663 220.58 39.943C220.481 39.795 220.407 39.6963 220.358 39.647C219.914 39.129 219.421 38.87 218.878 38.87C217.669 38.87 217.065 39.573 217.065 40.979C217.065 41.7437 217.213 42.5207 217.509 43.31C217.805 44.0993 218.249 45.0983 218.841 46.307C219.408 47.491 219.84 48.4777 220.136 49.267C220.432 50.0563 220.58 50.8087 220.58 51.524C220.58 52.782 220.198 53.8427 219.433 54.706C218.668 55.5693 217.595 56.0873 216.214 56.26C215.351 56.26 214.598 55.964 213.957 55.372C213.316 54.7553 212.995 54.1017 212.995 53.411Z" fill="#008CFF"/>
<path d="M118.754 45.16C118.927 45.1847 119.309 45.234 119.901 45.308C120.518 45.382 120.912 45.493 121.085 45.641C121.258 45.7643 121.344 45.9493 121.344 46.196C121.344 46.418 121.221 46.64 120.974 46.862C120.752 47.0593 120.518 47.1457 120.271 47.121L119.013 46.973C119.112 47.9843 119.309 49.674 119.605 52.042C119.901 54.3853 120.074 55.4953 120.123 55.372C120.098 55.6187 119.987 55.8283 119.79 56.001C119.593 56.1737 119.383 56.26 119.161 56.26C118.717 56.26 118.347 55.631 118.051 54.373C117.903 53.6577 117.743 52.3873 117.57 50.562C117.348 48.416 117.212 47.1457 117.163 46.751C115.14 46.5783 112.55 46.4673 109.393 46.418L107.173 46.381C103.991 51.1663 100.994 54.2127 98.182 55.52C97.2447 55.9887 96.5047 56.223 95.962 56.223C95.3207 56.223 95 55.9147 95 55.298C95 55.002 95.111 54.743 95.333 54.521C95.555 54.2743 95.777 54.151 95.999 54.151C96.221 54.151 96.406 54.2497 96.554 54.447C98.2313 53.781 99.7237 52.819 101.031 51.561C102.338 50.2783 103.781 48.5393 105.36 46.344L103.88 46.27C102.721 46.2207 101.894 46.159 101.401 46.085C100.908 45.9863 100.661 45.7767 100.661 45.456C100.661 45.2093 100.76 44.975 100.957 44.753C101.179 44.531 101.426 44.3953 101.697 44.346C102.314 44.4447 103.917 44.5557 106.507 44.679C108.875 41.127 111.317 36.9213 113.833 32.062C116.349 27.178 117.891 23.4533 118.458 20.888C118.557 20.6413 118.717 20.4317 118.939 20.259C119.161 20.0863 119.371 20 119.568 20C119.741 20 119.901 20.1357 120.049 20.407C120.222 20.6783 120.308 20.9497 120.308 21.221C120.308 21.4677 120.246 21.6527 120.123 21.776C119.728 23.2313 119.321 25.8953 118.902 29.768C118.507 33.6407 118.31 36.391 118.31 38.019C118.31 39.9677 118.458 42.348 118.754 45.16ZM116.682 38.426C116.682 35.6387 116.941 32.284 117.459 28.362C116.127 31.1493 114.585 34.0847 112.834 37.168C111.083 40.2513 109.578 42.7673 108.32 44.716C111.699 44.716 114.585 44.8023 116.978 44.975C116.781 43.273 116.682 41.09 116.682 38.426ZM120.123 55.261V55.372V55.261Z" stroke="#008CFF" stroke-width="2" mask="url(#path-2-outside-1_18_24)"/>
<path d="M129.97 56.519C128.885 56.519 128.046 56.038 127.454 55.076C126.887 54.114 126.603 52.9177 126.603 51.487C126.603 50.4263 126.665 49.3903 126.788 48.379C126.912 47.343 127.097 46.122 127.343 44.716L127.491 43.754C127.861 41.4353 128.17 39.6347 128.416 38.352C128.466 38.0313 128.515 37.7477 128.564 37.501C128.614 37.2543 128.651 37.0323 128.675 36.835C128.897 35.6757 129.095 34.7383 129.267 34.023C129.391 33.283 129.711 31.6673 130.229 29.176C130.624 27.4247 131.13 24.773 131.746 21.221C131.919 20.8263 132.166 20.629 132.486 20.629C133.128 20.629 133.448 20.9003 133.448 21.443L133.374 21.702C132.782 25.698 132.092 29.472 131.302 33.024C130.414 36.9953 129.761 40.0293 129.341 42.126C130.18 40.6213 130.982 39.4867 131.746 38.722C132.511 37.9327 133.35 37.538 134.262 37.538C135.175 37.538 135.903 37.8957 136.445 38.611C137.013 39.3017 137.296 40.1033 137.296 41.016C137.296 42.9153 137 45.086 136.408 47.528C135.841 49.9453 135.089 51.9187 134.151 53.448C132.918 55.4953 131.524 56.519 129.97 56.519ZM129.97 54.632C130.858 54.632 131.746 53.892 132.634 52.412C133.818 50.5127 134.657 48.0583 135.15 45.049C135.274 44.1117 135.335 43.2237 135.335 42.385C135.335 41.3737 135.237 40.6213 135.039 40.128C134.867 39.61 134.534 39.351 134.04 39.351C133.522 39.351 132.856 39.795 132.042 40.683C131.253 41.5463 130.538 42.6317 129.896 43.939C129.255 45.2217 128.873 46.4303 128.749 47.565C128.577 49.2177 128.49 50.525 128.49 51.487C128.49 53.5837 128.984 54.632 129.97 54.632Z" stroke="#008CFF" stroke-width="2" mask="url(#path-2-outside-1_18_24)"/>
<path d="M143.312 56.482C142.029 56.482 141.067 55.9763 140.426 54.965C139.809 53.9537 139.501 52.745 139.501 51.339C139.501 49.0943 139.871 46.9237 140.611 44.827C141.376 42.7057 142.412 40.9543 143.719 39.573C144.977 38.167 146.395 37.464 147.974 37.464C150.243 37.464 151.378 39.1907 151.378 42.644C151.378 44.3707 151.094 46.1343 150.527 47.935C149.96 49.7357 149.22 51.339 148.307 52.745C147.419 54.151 146.494 55.1623 145.532 55.779C144.792 56.2477 144.052 56.482 143.312 56.482ZM143.608 54.817C144.373 54.817 145.224 54.151 146.161 52.819C147.123 51.487 147.925 49.8343 148.566 47.861C149.232 45.8877 149.565 44.2103 149.565 42.829C149.565 41.3983 149.479 40.5103 149.306 40.165C149.158 39.795 148.973 39.536 148.751 39.388C148.529 39.24 148.184 39.166 147.715 39.166C147.197 39.166 146.654 39.3633 146.087 39.758C144.952 40.4733 143.966 41.7067 143.127 43.458C141.82 46.0727 141.166 48.6133 141.166 51.08C141.166 52.7573 141.647 53.9167 142.609 54.558C142.954 54.7307 143.287 54.817 143.608 54.817Z" stroke="#008CFF" stroke-width="2" mask="url(#path-2-outside-1_18_24)"/>
<path d="M163.287 57.037C162.547 57.037 162.177 56.0503 162.177 54.077C162.177 53.041 162.263 52.005 162.436 50.969C162.608 49.933 162.88 48.5887 163.25 46.936L163.546 45.567C163.126 46.381 162.633 47.417 162.066 48.675C161.054 50.747 160.031 52.56 158.995 54.114C157.983 55.668 156.972 56.445 155.961 56.445C154.629 56.445 153.963 55.1253 153.963 52.486C153.963 49.2053 154.493 45.3697 155.554 40.979L156.146 38.722C156.368 37.908 156.75 37.501 157.293 37.501C157.589 37.501 157.798 37.7107 157.922 38.13C157.872 38.574 157.774 39.1043 157.626 39.721C157.478 40.3377 157.379 40.7817 157.33 41.053C156.861 42.8537 156.479 44.6543 156.183 46.455C155.887 48.231 155.714 50.4017 155.665 52.967C155.665 53.9537 155.825 54.447 156.146 54.447C156.614 54.447 157.243 53.9043 158.033 52.819C158.822 51.709 159.796 50.0317 160.956 47.787C162.09 45.345 163.176 43.1497 164.212 41.201C165.248 39.2277 166.062 38.241 166.654 38.241C167.073 38.241 167.283 38.4753 167.283 38.944C167.283 39.2893 166.974 40.2637 166.358 41.867C165.889 43.0757 165.581 43.9513 165.433 44.494C164.569 47.454 164.027 50.6853 163.805 54.188C163.805 54.5087 163.829 54.7553 163.879 54.928C163.953 55.076 164.064 55.2363 164.212 55.409C164.384 55.5817 164.471 55.7913 164.471 56.038C164.471 56.2847 164.335 56.5067 164.064 56.704C163.792 56.926 163.533 57.037 163.287 57.037Z" stroke="#008CFF" stroke-width="2" mask="url(#path-2-outside-1_18_24)"/>
<path d="M172.973 56.297C172.11 56.297 171.456 56.075 171.012 55.631C170.593 55.187 170.383 54.3853 170.383 53.226C170.383 52.5847 170.457 51.8447 170.605 51.006L170.938 48.897L171.345 47.158L171.567 46.159L172.048 44.124C172.098 43.8033 172.209 43.2853 172.381 42.57L172.566 41.83L172.899 40.239L173.121 39.129C172.159 39.129 171.271 39.1907 170.457 39.314C169.964 39.24 169.717 39.0303 169.717 38.685C169.717 38.4383 169.816 38.204 170.013 37.982C170.211 37.76 170.445 37.6367 170.716 37.612L173.38 37.686C173.38 37.686 173.442 37.3777 173.565 36.761C173.615 36.2677 173.713 35.7003 173.861 35.059C174.009 34.4177 174.194 33.8503 174.416 33.357C174.638 32.8143 174.959 32.543 175.378 32.543C175.773 32.543 175.97 32.765 175.97 33.209V33.431C175.872 33.9243 175.785 34.282 175.711 34.504L175.082 37.649H177.746C178.684 37.649 179.263 37.723 179.485 37.871C179.683 38.019 179.781 38.204 179.781 38.426C179.781 38.8207 179.596 39.0797 179.226 39.203C178.881 39.3017 178.277 39.351 177.413 39.351C176.624 39.351 175.748 39.314 174.786 39.24C174.638 40.054 174.133 42.311 173.269 46.011C172.48 49.3657 172.085 51.487 172.085 52.375C172.085 53.337 172.196 53.966 172.418 54.262C172.542 54.4593 172.801 54.558 173.195 54.558C173.541 54.558 173.837 54.4717 174.083 54.299C174.355 54.1017 174.626 53.8427 174.897 53.522C175.169 53.1767 175.403 52.9177 175.6 52.745C175.798 52.5723 176.007 52.486 176.229 52.486C176.723 52.486 176.969 52.7327 176.969 53.226C176.969 53.4727 176.723 53.8797 176.229 54.447C175.736 55.0143 175.267 55.4707 174.823 55.816C174.429 56.1367 173.812 56.297 172.973 56.297Z" stroke="#008CFF" stroke-width="2" mask="url(#path-2-outside-1_18_24)"/>
<path d="M198.103 56.519C196.795 56.519 195.624 56.1983 194.588 55.557C193.552 54.9157 192.75 54.0523 192.183 52.967C191.615 51.8817 191.332 50.6977 191.332 49.415C191.332 48.9217 191.652 46.8127 192.294 43.088C192.935 39.3633 193.675 35.4043 194.514 31.211C195.377 26.993 196.154 23.6383 196.845 21.147C196.894 20.9743 196.993 20.8387 197.141 20.74C197.313 20.6413 197.486 20.592 197.659 20.592C198.177 20.592 198.436 20.8017 198.436 21.221C197.572 24.551 196.425 29.8297 194.995 37.057C193.589 44.2843 192.886 48.527 192.886 49.785C192.886 51.2403 193.354 52.449 194.292 53.411C195.229 54.3483 196.512 54.817 198.14 54.817C200.138 54.817 201.741 54.3607 202.95 53.448C204.158 52.5107 205.034 51.2527 205.577 49.674C206.465 47.01 207.205 44.4447 207.797 41.978C208.413 39.5113 209.104 36.5143 209.869 32.987C209.967 32.5923 210.276 31.1987 210.794 28.806C211.336 26.3887 211.916 24.1317 212.533 22.035C212.656 21.6157 212.841 21.2703 213.088 20.999C213.359 20.7277 213.606 20.592 213.828 20.592C214.272 20.592 214.494 20.8017 214.494 21.221C214.494 21.2457 214.383 21.6403 214.161 22.405C213.593 24.0577 213.112 25.7103 212.718 27.363C212.471 28.3497 212.027 30.3477 211.386 33.357C210.424 37.8957 209.548 41.6943 208.759 44.753C207.969 47.8117 207.131 50.155 206.243 51.783C204.565 54.9403 201.852 56.519 198.103 56.519Z" stroke="#008CFF" stroke-width="2" mask="url(#path-2-outside-1_18_24)"/>
<path d="M212.995 53.411C212.995 53.0903 213.081 52.8683 213.254 52.745C213.427 52.6217 213.649 52.5353 213.92 52.486C214.142 52.486 214.315 52.56 214.438 52.708C214.586 52.856 214.759 53.0903 214.956 53.411C215.153 53.7563 215.314 54.003 215.437 54.151C215.585 54.2743 215.832 54.336 216.177 54.336C216.966 54.336 217.608 54.0893 218.101 53.596C218.619 53.1027 218.878 52.523 218.878 51.857C218.878 51.1417 218.73 50.3893 218.434 49.6C218.138 48.8107 217.682 47.824 217.065 46.64C215.832 44.42 215.215 42.6563 215.215 41.349C215.215 40.0417 215.536 38.9933 216.177 38.204C216.843 37.4147 217.743 37.02 218.878 37.02C219.667 37.02 220.42 37.242 221.135 37.686C221.85 38.13 222.208 38.685 222.208 39.351C222.208 40.0663 221.912 40.424 221.32 40.424C221.147 40.424 220.999 40.3747 220.876 40.276C220.777 40.1773 220.679 40.0663 220.58 39.943C220.481 39.795 220.407 39.6963 220.358 39.647C219.914 39.129 219.421 38.87 218.878 38.87C217.669 38.87 217.065 39.573 217.065 40.979C217.065 41.7437 217.213 42.5207 217.509 43.31C217.805 44.0993 218.249 45.0983 218.841 46.307C219.408 47.491 219.84 48.4777 220.136 49.267C220.432 50.0563 220.58 50.8087 220.58 51.524C220.58 52.782 220.198 53.8427 219.433 54.706C218.668 55.5693 217.595 56.0873 216.214 56.26C215.351 56.26 214.598 55.964 213.957 55.372C213.316 54.7553 212.995 54.1017 212.995 53.411Z" stroke="#008CFF" stroke-width="2" mask="url(#path-2-outside-1_18_24)"/>
</svg>
